PathFileType  4	(X/Y/Z) C:\Users\antoi\Documents\MyRepositories\mobilecap\ResultsAnalysis
DataRate	CameraRate	NumFrames	NumMarkers	Units	OrigDataRate	OrigDataStartFrame	OrigNumFrames
100.0	100.0	4	51	mm	100.0	22	170
Frame#	Time	r_knee			r_shank_antsup			r_ankle			r_calc			r_5meta			r_toe			L_knee			L_shank_antsup			L_ankle			L_calc			L_5meta			L_toe			r_sh2			r_sh3			r_sh4			L_sh2			L_sh3			r_thigh1			r_thigh2			r_thigh3			r_thigh4			r_thigh5			L_thigh1			L_thigh2			L_thigh3			L_thigh4			r.ASIS			r.PSIS			L.ASIS			L.PSIS			C7			R_Shoulder			L_Shoulder			R_Sternum			L_Sternum			R_humerus			R_elbow_med			R_elbow_lat			R_forearm			R_wrist_radius			R_wrist_ulna			L_humerus			L_elbow_med			L_elbow_lat			L_forearm			L_wrist_radius			L_wrist_ulna			R_HJC			L_HJC			R_HJC_reg			L_HJC_reg			
		X1	Y1	Z1	X2	Y2	Z2	X3	Y3	Z3	X4	Y4	Z4	X5	Y5	Z5	X6	Y6	Z6	X7	Y7	Z7	X8	Y8	Z8	X9	Y9	Z9	X10	Y10	Z10	X11	Y11	Z11	X12	Y12	Z12	X13	Y13	Z13	X14	Y14	Z14	X15	Y15	Z15	X16	Y16	Z16	X17	Y17	Z17	X18	Y18	Z18	X19	Y19	Z19	X20	Y20	Z20	X21	Y21	Z21	X22	Y22	Z22	X23	Y23	Z23	X24	Y24	Z24	X25	Y25	Z25	X26	Y26	Z26	X27	Y27	Z27	X28	Y28	Z28	X29	Y29	Z29	X30	Y30	Z30	X31	Y31	Z31	X32	Y32	Z32	X33	Y33	Z33	X34	Y34	Z34	X35	Y35	Z35	X36	Y36	Z36	X37	Y37	Z37	X38	Y38	Z38	X39	Y39	Z39	X40	Y40	Z40	X41	Y41	Z41	X42	Y42	Z42	X43	Y43	Z43	X44	Y44	Z44	X45	Y45	Z45	X46	Y46	Z46	X47	Y47	Z47	X48	Y48	Z48	X49	Y49	Z49	X50	Y50	Z50	X51	Y51	Z51	

22	0.21000000	129.04240	465.82266	-96.37837	181.66263	361.47607	-115.67881	154.03245	85.39216	-158.75181	115.19970	55.02305	-217.40117	269.52555	39.04483	-122.92756	310.17579	58.49881	-162.23125	38.63027	431.03346	-391.98296	-7.94487	329.52132	-348.30328	-288.10832	231.89639	-368.43943	-331.19504	270.25128	-325.61276	-312.01365	95.80486	-358.43966	-278.79203	75.08436	-304.33236	191.11238	251.14391	-137.71048	122.24905	345.26183	-70.44944	115.21325	237.25729	-103.35303	-22.98517	381.41648	-416.46368	-125.43935	318.57976	-426.24664	180.91445	778.07416	-96.50418	201.58552	667.43998	-100.69602	156.25171	636.39615	-57.57944	78.58515	757.92113	-48.04037	100.47710	643.22140	-50.95924	136.07262	713.11694	-407.07298	139.67611	576.43541	-404.77979	29.73501	714.96232	-438.86301	31.00913	574.20899	-422.64722	178.00822	922.76079	-131.25430	-0.48627	974.03138	-210.56276	187.26297	896.81170	-372.22484	4.23899	965.96662	-326.31163	67.80545	1392.94676	-133.54828	83.32197	1300.40727	-0.72411	170.43426	1414.42222	-273.29236	183.42646	1316.41654	-112.45011	195.59126	1331.40526	-153.35140	69.01030	1161.43597	30.40121	-12.24874	996.17299	-82.16806	-19.87334	990.50675	-5.99070	26.53167	870.24745	14.56676	69.60669	775.64456	17.91836	32.61049	764.71362	15.92565	191.50064	1291.28104	-379.04933	76.22494	1120.47337	-421.87929	125.22229	1139.26275	-473.45119	183.90920	1050.21124	-474.91414	216.43189	923.39655	-457.23287	205.40131	919.74382	-488.56064	81.12842	857.50337	-153.36416	93.19229	834.51285	-340.95454	100.94391	852.56179	-163.46760	107.45965	841.44556	-323.02079	
23	0.22000000	133.36000	466.26476	-96.22244	185.05900	361.38547	-115.94957	154.42761	85.58580	-159.16000	115.15761	55.17769	-217.41853	269.66858	38.98471	-122.93684	310.34636	58.29965	-162.18835	58.06035	430.51342	-392.10439	10.80800	329.06356	-348.17168	-269.09745	234.32705	-370.82981	-311.86335	273.45052	-328.38427	-295.34207	98.77765	-361.55074	-263.35511	77.05129	-307.04733	193.38489	250.99093	-138.14913	125.73257	345.63221	-70.40222	117.56091	237.69488	-103.35924	-2.58653	380.81316	-416.88003	-105.25625	318.51654	-427.68343	188.47792	778.00799	-96.20931	208.27717	667.21023	-100.53562	162.25480	636.36551	-57.23139	85.80503	758.73981	-47.49657	106.69019	643.80818	-50.65760	147.55227	714.61407	-406.58070	155.12768	578.03785	-405.09237	41.35514	713.62167	-438.72186	46.63247	572.75000	-422.85111	186.36549	923.31131	-130.71056	7.84840	975.18230	-209.76654	195.24977	897.94380	-371.63291	12.19346	966.83634	-325.59404	77.64958	1393.67271	-132.06201	93.37185	1300.89956	0.63529	179.72323	1414.97983	-272.13776	193.11010	1316.77927	-111.39668	205.12994	1331.76503	-152.35339	79.11728	1161.72882	31.31239	-2.96864	996.71542	-81.49693	-9.97945	990.83858	-5.23953	38.93745	871.49136	14.97124	84.21389	777.84430	18.14194	47.45241	766.17062	16.30640	200.13183	1292.33938	-378.57175	83.85317	1122.37321	-422.50799	132.70240	1141.40791	-474.06890	192.25134	1052.88216	-475.69510	226.23134	926.42637	-457.81400	215.12627	922.66800	-489.10399	89.35648	858.29482	-152.79810	101.17345	835.54626	-340.43354	109.12986	853.99200	-162.57189	115.11535	842.50167	-322.03777	
24	0.23000000	137.72307	466.66958	-96.06496	188.56713	361.27169	-116.32199	154.89079	85.65710	-159.59085	115.10834	55.32412	-217.40878	269.79791	38.94445	-122.95786	310.51112	58.15114	-162.14436	77.84276	430.26369	-391.96271	29.92999	328.81719	-347.67767	-249.64727	236.68450	-373.06008	-292.46163	276.07245	-330.85981	-276.93166	101.47297	-364.87405	-245.90971	79.00490	-310.01280	195.73036	250.83253	-138.67668	129.44543	345.99807	-70.34798	120.04711	238.12895	-103.31167	18.21435	380.25234	-417.05489	-84.54631	318.33357	-428.89326	195.93734	777.90080	-95.92839	215.02215	666.97652	-100.35694	168.26963	636.30912	-56.87523	93.18908	759.54364	-47.12636	112.91689	644.44303	-50.43539	159.00718	716.23911	-406.03340	170.65938	579.92092	-405.20215	53.05304	712.26731	-438.68489	62.41373	571.46984	-422.95084	194.60736	923.79459	-130.20324	16.00371	976.26409	-208.92966	203.01839	899.00799	-371.11625	19.96509	967.70206	-324.85322	87.34070	1394.40040	-130.71401	103.33224	1301.44056	1.91576	188.79461	1415.35722	-271.23097	202.64665	1317.12768	-110.48114	214.48163	1332.04302	-151.52519	89.22782	1162.07832	32.20114	6.18689	997.24595	-80.70008	-0.06085	991.15310	-4.34040	51.30744	872.76120	15.43419	98.68507	780.08061	18.34834	62.24881	767.65496	16.71312	208.44654	1293.11943	-378.25461	91.35847	1123.80571	-422.87844	139.90729	1143.14708	-474.53312	200.37833	1055.23377	-476.55268	236.01525	929.23551	-458.57813	224.71566	925.29317	-489.74414	97.44170	859.02122	-152.25142	108.93477	836.53884	-339.93860	117.16823	855.26937	-161.74739	122.61947	843.49464	-321.15537	
25	0.24000000	142.16336	467.01868	-95.91670	192.15980	361.12692	-116.77895	155.39723	85.63193	-160.02885	115.07962	55.44455	-217.39541	269.91612	38.91678	-122.99009	310.66954	58.02748	-162.11046	97.92085	430.35237	-391.56074	49.42779	328.87230	-346.84851	-229.85850	239.02996	-375.13054	-273.11744	278.10898	-332.98958	-256.77852	103.87155	-368.37778	-226.35444	80.95771	-313.24468	198.14415	250.66103	-139.26675	133.34890	346.34540	-70.28529	122.65702	238.55218	-103.21559	39.34892	379.82817	-416.97544	-63.39082	318.16585	-429.85148	203.30970	777.74645	-95.70031	221.76934	666.71782	-100.20296	174.33189	636.24962	-56.55433	100.71085	760.30139	-46.91543	119.17643	645.08364	-50.27897	170.43036	718.03637	-405.42915	186.23312	582.14355	-405.07071	64.79927	710.97367	-438.70767	78.32047	570.45364	-422.90683	202.75974	924.22494	-129.72370	24.00773	977.25488	-208.05191	210.59276	900.04641	-370.66664	27.60102	968.53603	-324.06264	96.86996	1395.14723	-129.50444	113.19507	1302.05831	3.10110	197.64595	1415.59818	-270.56250	212.02232	1317.47477	-109.71411	223.64833	1332.27015	-150.87045	99.29522	1162.52144	33.07608	15.25794	997.78848	-79.77901	9.89790	991.47451	-3.30199	63.61649	874.06299	15.95374	112.97937	782.35200	18.53570	76.97200	769.16442	17.12749	216.43365	1293.66852	-378.09914	98.78086	1124.76170	-422.93983	146.83263	1144.49156	-474.82221	208.27882	1057.26226	-477.45670	245.75753	931.82870	-459.51886	234.12795	927.62129	-490.46886	105.43529	859.67416	-151.71932	116.53387	837.49818	-339.46608	125.08680	856.41185	-160.99437	130.02685	844.43186	-320.37118	
